<?xml version="1.0" encoding="UTF-8"?>
<svg version="1.1" xmlns="http://www.w3.org/2000/svg" width="302" height="177">
<path d="M0 0 C99.66 0 199.32 0 302 0 C302 58.41 302 116.82 302 177 C202.34 177 102.68 177 0 177 C0 118.59 0 60.18 0 0 Z " fill="#FDFDFD" transform="translate(0,0)"/>
<path d="M0 0 C1.79635908 0.89842846 3.56872099 1.84615173 5.31640625 2.8359375 C6.31833008 3.40006348 7.32025391 3.96418945 8.35253906 4.54541016 C9.41182617 5.1491748 10.47111328 5.75293945 11.5625 6.375 C12.65916992 6.99552246 13.75583984 7.61604492 14.88574219 8.25537109 C17.14863785 9.53702556 19.41018798 10.82105853 21.67041016 12.10742188 C24.82092839 13.89821359 27.97770714 15.67737055 31.13671875 17.453125 C33.00806113 18.50997654 34.87916729 19.5672465 36.75 20.625 C37.61181885 21.10888184 38.4736377 21.59276367 39.36157227 22.09130859 C43.52476337 24.45942352 47.36171819 26.84978039 51 30 C48.82617188 31.15283203 48.82617188 31.15283203 46 32 C43.47070312 31.13232422 43.47070312 31.13232422 40.78125 29.5546875 C39.77594238 28.97750977 38.77063477 28.40033203 37.73486328 27.80566406 C36.6673584 27.16854492 35.59985352 26.53142578 34.5 25.875 C33.40026855 25.23788086 32.30053711 24.60076172 31.16748047 23.94433594 C28.89234654 22.62527541 26.62137361 21.29901336 24.35449219 19.96582031 C20.22112257 17.54355742 16.05642168 15.17932106 11.88867188 12.81689453 C9.25871502 11.32581122 6.63140504 9.83037697 4.0078125 8.328125 C3.30285645 7.9249707 2.59790039 7.52181641 1.87158203 7.10644531 C0.21370938 6.1263411 -1.39754242 5.06830506 -3 4 C-7.36632391 4.3010778 -10.52494283 6.25638745 -14.234375 8.46484375 C-15.12140358 8.98886276 -15.12140358 8.98886276 -16.02635193 9.52346802 C-17.93821015 10.65492519 -19.84399501 11.79621597 -21.75 12.9375 C-23.05986056 13.71420646 -24.37016506 14.49016475 -25.6809082 15.26538086 C-29.4588582 17.50203645 -33.23021882 19.74961097 -37 22 C-39.66899267 23.59206132 -42.3382043 25.18367275 -45.01074219 26.76977539 C-46.42686055 27.61077435 -47.84042508 28.45609362 -49.25097656 29.30639648 C-53.77665944 32 -53.77665944 32 -56 32 C-56 52.13 -56 72.26 -56 93 C-54.02 93.66 -52.04 94.32 -50 95 C-48.34941775 95.82553692 -46.72215727 96.69929396 -45.12109375 97.6171875 C-44.209646 98.13651855 -43.29819824 98.65584961 -42.35913086 99.19091797 C-41.39499268 99.74666504 -40.43085449 100.30241211 -39.4375 100.875 C-38.43404541 101.44492676 -37.43059082 102.01485352 -36.39672852 102.60205078 C-31.24194118 105.53552509 -26.11945285 108.51498408 -21.03125 111.5625 C-19.61888062 112.3980542 -19.61888062 112.3980542 -18.17797852 113.25048828 C-16.38606908 114.31270346 -14.60224191 115.38870443 -12.82788086 116.47998047 C-12.01714111 116.95838379 -11.20640137 117.43678711 -10.37109375 117.9296875 C-9.66911865 118.35491699 -8.96714355 118.78014648 -8.24389648 119.21826172 C-5.09895351 120.31391044 -3.20129253 119.86727745 0 119 C3.15099191 117.49797095 3.15099191 117.49797095 6.33203125 115.53515625 C6.92183273 115.18576492 7.51163422 114.8363736 8.11930847 114.47639465 C9.37475576 113.73101887 10.62766164 112.98134822 11.87817383 112.22772217 C13.82545496 111.05469604 15.77977094 109.89429426 17.73632812 108.73681641 C23.35566764 105.40662361 28.95124716 102.04102696 34.51171875 98.61328125 C35.28733154 98.14075928 36.06294434 97.6682373 36.86206055 97.18139648 C38.24541265 96.33609363 39.62122584 95.47827317 40.98754883 94.60571289 C43.87074261 92.84648255 45.51758678 91.95766054 48.9375 92.2578125 C49.9584375 92.62519531 49.9584375 92.62519531 51 93 C51 93.66 51 94.32 51 95 C50.01495483 95.56376343 50.01495483 95.56376343 49.01000977 96.13891602 C45.85933847 97.94417289 42.71069674 99.75293109 39.5625 101.5625 C38.98520142 101.8938092 38.40790283 102.22511841 37.81311035 102.56646729 C31.13419958 106.40224413 24.48848261 110.28167525 17.91796875 114.30078125 C16.79769287 114.98390381 15.67741699 115.66702637 14.52319336 116.37084961 C12.37696857 117.68496606 10.23564759 119.00713266 8.09985352 120.33813477 C7.12330811 120.93553467 6.1467627 121.53293457 5.140625 122.1484375 C4.29016602 122.67614746 3.43970703 123.20385742 2.56347656 123.74755859 C-0.41147104 125.201033 -2.68910592 125.82093843 -6 126 C-8.64282227 125.01879883 -8.64282227 125.01879883 -11.31640625 123.45703125 C-12.31808838 122.88331787 -13.31977051 122.30960449 -14.35180664 121.71850586 C-15.41133545 121.08952393 -16.47086426 120.46054199 -17.5625 119.8125 C-19.21076782 118.86032593 -19.21076782 118.86032593 -20.89233398 117.88891602 C-23.1598769 116.57798511 -25.42362121 115.26046257 -27.68359375 113.93652344 C-30.78687215 112.1244501 -33.90397132 110.34056819 -37.03125 108.5703125 C-44.2406124 104.48767796 -44.2406124 104.48767796 -47.50390625 102.62109375 C-48.18267822 102.2336499 -48.8614502 101.84620605 -49.56079102 101.44702148 C-50.36572998 100.96950439 -51.17066895 100.4919873 -52 100 C-52.997183 99.61864395 -52.997183 99.61864395 -54.01451111 99.22958374 C-56.55530347 98.07358595 -58.12839156 97.08773738 -60 95 C-61.31011191 90.25707175 -61.29863847 85.49884144 -61.30859375 80.609375 C-61.33178778 79.18074398 -61.35630985 77.75213396 -61.38209534 76.32354736 C-61.42542638 73.33056968 -61.43632533 70.33944782 -61.42749023 67.34619141 C-61.42236582 64.28577478 -61.47086072 61.23405992 -61.57104492 58.17529297 C-62.35619248 33.87820365 -62.35619248 33.87820365 -58.69210815 27.84725952 C-55.36880065 24.56043662 -51.4859657 23.1069624 -47.08822632 21.73052979 C-43.61911064 20.51691979 -40.64727437 18.55061687 -37.54296875 16.61328125 C-36.31816031 15.89108773 -35.09094136 15.1729665 -33.86132812 14.45898438 C-33.25619385 14.10537842 -32.65105957 13.75177246 -32.02758789 13.38745117 C-31.42035889 13.03271729 -30.81312988 12.6779834 -30.1875 12.3125 C-28.32807289 11.22582814 -26.46880348 10.13889768 -24.61038208 9.05050659 C-23.41245277 8.35035168 -22.21299929 7.65279713 -21.01193237 6.95803833 C-18.32332447 5.39683633 -15.69111424 3.79502967 -13.10009766 2.07568359 C-12.23819824 1.5080127 -11.37629883 0.9403418 -10.48828125 0.35546875 C-9.75778564 -0.14960205 -9.02729004 -0.65467285 -8.2746582 -1.17504883 C-4.94346168 -2.38317516 -3.19238694 -1.38549593 0 0 Z " fill="#2A2830" transform="translate(91,32)"/>
<path d="M0 0 C1.3406921 0.63863533 2.65915481 1.32519145 3.95703125 2.046875 C4.72909912 2.47347412 5.50116699 2.90007324 6.29663086 3.33959961 C7.54198608 4.0377478 7.54198608 4.0377478 8.8125 4.75 C9.67818604 5.23154541 10.54387207 5.71309082 11.43579102 6.20922852 C13.30325654 7.24988485 15.16933542 8.29303257 17.03417969 9.33837891 C20.10513981 11.0589053 23.18140213 12.76971003 26.2578125 14.48046875 C28.31807097 15.63216403 30.37797446 16.78449457 32.4375 17.9375 C33.90183472 18.75202637 33.90183472 18.75202637 35.39575195 19.58300781 C39.88525849 22.11024733 44.11412855 24.57614299 48 28 C47.67 28.66 47.34 29.32 47 30 C42.93529806 28.75640006 39.44504613 27.26870017 35.796875 25.09375 C34.33858276 24.23148804 34.33858276 24.23148804 32.85083008 23.35180664 C31.82755615 22.74071045 30.80428223 22.12961426 29.75 21.5 C27.60346283 20.23726373 25.45632122 18.97555443 23.30859375 17.71484375 C20.2725713 15.92767507 17.23690587 14.13994283 14.20361328 12.34814453 C11.74810469 10.90483734 9.28239688 9.48100078 6.8125 8.0625 C6.0896582 7.63195313 5.36681641 7.20140625 4.62207031 6.7578125 C0.84281289 4.55244803 0.84281289 4.55244803 -3.40917969 4.22900391 C-6.25560607 5.07606521 -8.48071281 6.22445647 -11.03515625 7.73828125 C-12.01162109 8.31255859 -12.98808594 8.88683594 -13.99414062 9.47851562 C-15.00669922 10.08373047 -16.01925781 10.68894531 -17.0625 11.3125 C-18.01705078 11.87517578 -18.97160156 12.43785156 -19.95507812 13.01757812 C-22.0504504 14.2558143 -24.1260809 15.52782974 -26.18505859 16.82568359 C-29.09955089 18.59159176 -32.06644471 19.87322733 -35.22509766 21.14697266 C-40.86975192 23.62173518 -46.10480297 26.08410177 -50 31 C-53.23000204 40.11931551 -51.87537154 50.27975097 -51.25 59.75 C-51.14957137 62.39289275 -51.05833483 65.03615175 -50.9765625 67.6796875 C-50.75716038 74.12783827 -50.42362722 80.56221108 -50 87 C-49.23324448 87.29953583 -48.46648895 87.59907166 -47.67649841 87.90768433 C-44.67367565 89.13317744 -41.92968556 90.61455096 -39.09765625 92.1953125 C-37.96610107 92.82566406 -36.8345459 93.45601563 -35.66870117 94.10546875 C-35.07882416 94.43595215 -34.48894714 94.76643555 -33.88119507 95.10693359 C-32.05107071 96.13139787 -30.21789559 97.15021327 -28.3840332 98.16796875 C-23.32356481 100.98197049 -18.27146692 103.8006416 -13.3203125 106.8046875 C-12.68601318 107.18608887 -12.05171387 107.56749023 -11.39819336 107.96044922 C-9.82306193 108.91762199 -8.26048843 109.89537981 -6.69921875 110.875 C-3.25795409 112.30927528 -1.60394988 111.85914851 2 111 C4.85576033 109.69115926 4.85576033 109.69115926 7.67578125 107.97265625 C8.74376953 107.3494751 9.81175781 106.72629395 10.91210938 106.08422852 C12.03423828 105.41705811 13.15636719 104.7498877 14.3125 104.0625 C15.47539434 103.38054646 16.63880962 102.69948049 17.80273438 102.01928711 C23.02189104 98.96370861 28.21893801 95.87091466 33.41796875 92.78125 C34.20324951 92.31581787 34.98853027 91.85038574 35.79760742 91.37084961 C37.23437018 90.51732876 38.66828031 89.65898214 40.09887695 88.79516602 C44.78073494 86 44.78073494 86 47 86 C47.33 86.99 47.66 87.98 48 89 C47.32759277 89.38631592 46.65518555 89.77263184 45.96240234 90.1706543 C43.35524299 91.66940581 40.74896429 93.16967861 38.14294434 94.67041016 C36.37388847 95.68813946 34.60348952 96.70350364 32.83300781 97.71875 C27.03716712 101.04893558 21.27685217 104.41771976 15.5859375 107.92578125 C14.10601318 108.83034058 14.10601318 108.83034058 12.59619141 109.75317383 C10.73308278 110.89664117 8.87815745 112.05357693 7.03271484 113.2253418 C0.93540575 116.94810007 0.93540575 116.94810007 -3.02734375 117.16796875 C-7.38211586 115.45696105 -11.29967329 113.20640182 -15.3125 110.8125 C-17.16853576 109.72790778 -19.02534244 108.644634 -20.8828125 107.5625 C-21.86540039 106.98757812 -22.84798828 106.41265625 -23.86035156 105.8203125 C-29.43427438 102.58865087 -35.06222483 99.45363415 -40.6875 96.3125 C-41.7803833 95.70059814 -42.8732666 95.08869629 -43.99926758 94.45825195 C-48.95821532 91.65145396 -48.95821532 91.65145396 -54 89 C-54 68.87 -54 48.74 -54 28 C-48.72 25.03 -43.44 22.06 -38 19 C-34.24093339 16.80474457 -30.49001712 14.60177965 -26.75 12.375 C-25.81687988 11.82376465 -24.88375977 11.2725293 -23.92236328 10.70458984 C-19.9527461 8.35874992 -15.99033444 6.00608989 -12.0703125 3.578125 C-11.01585937 2.93359375 -9.96140625 2.2890625 -8.875 1.625 C-8.00617188 1.08101562 -7.13734375 0.53703125 -6.2421875 -0.0234375 C-3.5228336 -1.20782508 -2.76216927 -0.9031215 0 0 Z " fill="#717075" transform="translate(89,36)"/>
<path d="M0 0 C3.91875 -0.04125 7.8375 -0.0825 11.875 -0.125 C13.10976074 -0.14320801 14.34452148 -0.16141602 15.61669922 -0.18017578 C17.07100342 -0.18766846 17.07100342 -0.18766846 18.5546875 -0.1953125 C19.54968262 -0.20578613 20.54467773 -0.21625977 21.56982422 -0.22705078 C24 0 24 0 26 2 C26.19893799 4.52475716 26.27847435 6.91514749 26.25 9.4375 C26.25773437 10.11876953 26.26546875 10.80003906 26.2734375 11.50195312 C26.25889434 15.21409442 26.10940418 16.83589372 24 20 C24.66 20.66 25.32 21.32 26 22 C26.125 25.125 26.125 25.125 26 28 C23.1875 28.3125 23.1875 28.3125 20 28 C18.25 25.625 18.25 25.625 17 23 C14.60236815 20.60236815 13.66726502 20.65719414 10.375 20.375 C9.55773437 20.30023438 8.74046875 20.22546875 7.8984375 20.1484375 C7.27195313 20.09945312 6.64546875 20.05046875 6 20 C6 22.64 6 25.28 6 28 C4.02 28 2.04 28 0 28 C0 18.76 0 9.52 0 0 Z " fill="#27252D" transform="translate(162,80)"/>
<path d="M0 0 C3.91875 -0.061875 7.8375 -0.12375 11.875 -0.1875 C13.10976074 -0.21481201 14.34452148 -0.24212402 15.61669922 -0.27026367 C16.58623535 -0.27775635 17.55577148 -0.28524902 18.5546875 -0.29296875 C20.04718018 -0.31653442 20.04718018 -0.31653442 21.56982422 -0.34057617 C22.37178223 -0.22818604 23.17374023 -0.1157959 24 0 C26.41564046 3.62346069 26.29781669 6.31603982 26.25 10.5 C26.25773437 11.17675781 26.26546875 11.85351562 26.2734375 12.55078125 C26.25884811 16.24919257 26.10264442 17.84603337 24 21 C22.12060547 21.34057617 22.12060547 21.34057617 19.8671875 21.29296875 C19.06152344 21.28330078 18.25585938 21.27363281 17.42578125 21.26367188 C16.58402344 21.23853516 15.74226563 21.21339844 14.875 21.1875 C13.60076172 21.16719727 13.60076172 21.16719727 12.30078125 21.14648438 C10.20025163 21.11108219 8.10004707 21.05727401 6 21 C6 23.64 6 26.28 6 29 C4.02 29 2.04 29 0 29 C0 19.43 0 9.86 0 0 Z " fill="#3B3940" transform="translate(251,79)"/>
<path d="M0 0 C0.86560547 0.32935547 1.73121094 0.65871094 2.62304688 0.99804688 C4.73165283 1.80188009 6.83609349 2.6150712 8.9375 3.4375 C8.9375 4.4275 8.9375 5.4175 8.9375 6.4375 C6.08309413 6.29553484 3.22903804 6.14904174 0.375 6 C-0.82479492 5.94102539 -0.82479492 5.94102539 -2.04882812 5.88085938 C-6.77621506 5.63001844 -11.38726901 5.18428186 -16.0625 4.4375 C-16.0625 5.0975 -16.0625 5.7575 -16.0625 6.4375 C-15.06283203 6.42009766 -15.06283203 6.42009766 -14.04296875 6.40234375 C-7.32019055 6.33652634 -0.745061 6.71366361 5.9375 7.4375 C2.53886741 9.70325506 -0.96825241 11.14911136 -4.75 12.625 C-5.43255859 12.91052734 -6.11511719 13.19605469 -6.81835938 13.49023438 C-16.02166437 17.0620553 -23.32539684 13.86381568 -32.0625 10.375 C-33.51076172 9.80942383 -33.51076172 9.80942383 -34.98828125 9.23242188 C-37.34968868 8.30890115 -39.7074741 7.37714767 -42.0625 6.4375 C-41.0625 3.4375 -41.0625 3.4375 -39.07226562 2.34667969 C-36.24228515 1.27349504 -33.40952316 0.2147764 -30.5625 -0.8125 C-29.593125 -1.18890625 -28.62375 -1.5653125 -27.625 -1.953125 C-17.15720241 -5.78006175 -10.12396882 -3.96633379 0 0 Z " fill="#28262D" transform="translate(103.0625,70.5625)"/>
<path d="M0 0 C2.825625 0.144375 5.65125 0.28875 8.5625 0.4375 C8.5625 9.6775 8.5625 18.9175 8.5625 28.4375 C6.9125 28.4375 5.2625 28.4375 3.5625 28.4375 C3.5625 25.4675 3.5625 22.4975 3.5625 19.4375 C-1.3875 19.4375 -6.3375 19.4375 -11.4375 19.4375 C-11.4375 22.4075 -11.4375 25.3775 -11.4375 28.4375 C-13.0875 28.4375 -14.7375 28.4375 -16.4375 28.4375 C-16.64254349 25.08425035 -16.76568195 21.73262597 -16.875 18.375 C-16.93365234 17.43205078 -16.99230469 16.48910156 -17.05273438 15.51757812 C-17.17534555 10.49051992 -16.88318905 7.16004355 -13.5 3.28125 C-9.22578231 -0.35581723 -5.39939771 -0.39280084 0 0 Z " fill="#232129" transform="translate(208.4375,79.5625)"/>
<path d="M0 0 C1.31871094 -0.00580078 1.31871094 -0.00580078 2.6640625 -0.01171875 C3.57929688 -0.00011719 4.49453125 0.01148437 5.4375 0.0234375 C6.81035156 0.00603516 6.81035156 0.00603516 8.2109375 -0.01171875 C9.09007812 -0.00785156 9.96921875 -0.00398438 10.875 0 C12.07962891 0.00507568 12.07962891 0.00507568 13.30859375 0.01025391 C15.95893812 0.49351624 16.85723801 1.24130439 18.4375 3.3984375 C18.625 6.5859375 18.625 6.5859375 18.4375 9.3984375 C16.4575 9.3984375 14.4775 9.3984375 12.4375 9.3984375 C12.4375 8.4084375 12.4375 7.4184375 12.4375 6.3984375 C7.8175 6.3984375 3.1975 6.3984375 -1.5625 6.3984375 C-1.5625 12.0084375 -1.5625 17.6184375 -1.5625 23.3984375 C3.0575 23.3984375 7.6775 23.3984375 12.4375 23.3984375 C12.4375 21.7484375 12.4375 20.0984375 12.4375 18.3984375 C10.1275 18.3984375 7.8175 18.3984375 5.4375 18.3984375 C5.4375 16.7484375 5.4375 15.0984375 5.4375 13.3984375 C9.7275 13.3984375 14.0175 13.3984375 18.4375 13.3984375 C18.49134521 15.68985036 18.53022087 17.98161938 18.5625 20.2734375 C18.58570313 21.54960938 18.60890625 22.82578125 18.6328125 24.140625 C18.4375 27.3984375 18.4375 27.3984375 16.4375 29.3984375 C14.22265625 29.65722656 14.22265625 29.65722656 11.5 29.6640625 C10.52289063 29.66664062 9.54578125 29.66921875 8.5390625 29.671875 C7.51554688 29.66414063 6.49203125 29.65640625 5.4375 29.6484375 C4.41398438 29.65617187 3.39046875 29.66390625 2.3359375 29.671875 C1.35882813 29.66929688 0.38171875 29.66671875 -0.625 29.6640625 C-1.52347656 29.66180664 -2.42195312 29.65955078 -3.34765625 29.65722656 C-5.5625 29.3984375 -5.5625 29.3984375 -7.5625 27.3984375 C-8.01905797 23.43794928 -7.88652042 19.4446994 -7.875 15.4609375 C-7.89111328 14.35041016 -7.90722656 13.23988281 -7.92382812 12.09570312 C-7.92447266 11.03158203 -7.92511719 9.96746094 -7.92578125 8.87109375 C-7.92876221 7.89406494 -7.93174316 6.91703613 -7.93481445 5.91040039 C-7.5625 3.3984375 -7.5625 3.3984375 -6.32495117 1.58129883 C-4.08119789 0.07541371 -2.69182002 0.01134194 0 0 Z " fill="#29272E" transform="translate(139.5625,78.6015625)"/>
<path d="M0 0 C1.02802734 -0.01224609 2.05605469 -0.02449219 3.11523438 -0.03710938 C4.58766602 -0.04000977 4.58766602 -0.04000977 6.08984375 -0.04296875 C6.99468506 -0.04707764 7.89952637 -0.05118652 8.83178711 -0.05541992 C11.0625 0.1875 11.0625 0.1875 13.0625 2.1875 C13.1875 5.3125 13.1875 5.3125 13.0625 8.1875 C11.4125 8.1875 9.7625 8.1875 8.0625 8.1875 C8.0625 7.1975 8.0625 6.2075 8.0625 5.1875 C3.1125 5.1875 -1.8375 5.1875 -6.9375 5.1875 C-6.9375 7.1675 -6.9375 9.1475 -6.9375 11.1875 C-5.02324219 11.15269531 -5.02324219 11.15269531 -3.0703125 11.1171875 C-1.4010475 11.09843171 0.2682238 11.08023131 1.9375 11.0625 C2.77925781 11.04574219 3.62101563 11.02898437 4.48828125 11.01171875 C5.29394531 11.00527344 6.09960938 10.99882813 6.9296875 10.9921875 C7.67331543 10.98171387 8.41694336 10.97124023 9.18310547 10.96044922 C11.0625 11.1875 11.0625 11.1875 13.0625 13.1875 C13.328125 16.15625 13.328125 16.15625 13.3125 19.6875 C13.31765625 20.8528125 13.3228125 22.018125 13.328125 23.21875 C13.0625 26.1875 13.0625 26.1875 11.0625 28.1875 C8.93945312 28.44628906 8.93945312 28.44628906 6.34375 28.453125 C5.41175781 28.45570312 4.47976562 28.45828125 3.51953125 28.4609375 C2.54371094 28.45320313 1.56789062 28.44546875 0.5625 28.4375 C-0.41332031 28.44523437 -1.38914063 28.45296875 -2.39453125 28.4609375 C-3.32652344 28.45835938 -4.25851563 28.45578125 -5.21875 28.453125 C-6.07533203 28.45086914 -6.93191406 28.44861328 -7.81445312 28.44628906 C-9.9375 28.1875 -9.9375 28.1875 -11.9375 26.1875 C-12.0625 23.0625 -12.0625 23.0625 -11.9375 20.1875 C-10.2875 20.1875 -8.6375 20.1875 -6.9375 20.1875 C-6.9375 20.8475 -6.9375 21.5075 -6.9375 22.1875 C-2.3175 22.1875 2.3025 22.1875 7.0625 22.1875 C7.0625 20.5375 7.0625 18.8875 7.0625 17.1875 C5.25652344 17.20490234 5.25652344 17.20490234 3.4140625 17.22265625 C1.83854321 17.23203434 0.26302225 17.24113452 -1.3125 17.25 C-2.50359375 17.26256836 -2.50359375 17.26256836 -3.71875 17.27539062 C-9.7109375 17.30078125 -9.7109375 17.30078125 -11.9375 16.1875 C-11.96435095 13.70826199 -11.98426547 11.2293116 -12 8.75 C-12.01256836 7.68942383 -12.01256836 7.68942383 -12.02539062 6.60742188 C-12.03403588 4.80056441 -11.98970011 2.99362397 -11.9375 1.1875 C-9.51933834 -1.23066166 -3.24972181 0.00202981 0 0 Z " fill="#24222A" transform="translate(233.9375,79.8125)"/>
<path d="M0 0 C1.00160156 0.37253906 2.00320312 0.74507813 3.03515625 1.12890625 C4.37731631 1.60757872 5.71978084 2.08539809 7.0625 2.5625 C8.04766602 2.9327832 8.04766602 2.9327832 9.05273438 3.31054688 C15.86051625 5.69159374 21.15359724 4.53586905 27.8125 1.9375 C32.8113879 0 32.8113879 0 35 0 C35.56844225 3.15801251 35.76095064 5.86427053 35 9 C30.08500592 14.00772982 24.25427226 16.08369531 17.375 16.375 C10.79174846 16.33593026 4.66338276 13.66338276 0 9 C-0.1953125 6.8359375 -0.1953125 6.8359375 -0.125 4.375 C-0.10695313 3.55773437 -0.08890625 2.74046875 -0.0703125 1.8984375 C-0.04710938 1.27195312 -0.02390625 0.64546875 0 0 Z " fill="#25242B" transform="translate(70,82)"/>
<path d="M0 0 C1.3406921 0.63863533 2.65915481 1.32519145 3.95703125 2.046875 C4.72909912 2.47347412 5.50116699 2.90007324 6.29663086 3.33959961 C7.54198608 4.0377478 7.54198608 4.0377478 8.8125 4.75 C9.67818604 5.23154541 10.54387207 5.71309082 11.43579102 6.20922852 C13.30325654 7.24988485 15.16933542 8.29303257 17.03417969 9.33837891 C20.10513981 11.0589053 23.18140213 12.76971003 26.2578125 14.48046875 C28.31807097 15.63216403 30.37797446 16.78449457 32.4375 17.9375 C33.90183472 18.75202637 33.90183472 18.75202637 35.39575195 19.58300781 C39.88525849 22.11024733 44.11412855 24.57614299 48 28 C47.34 28.66 46.68 29.32 46 30 C46 29.34 46 28.68 46 28 C45.29528564 27.73517822 44.59057129 27.47035645 43.86450195 27.19750977 C40.83004372 25.9289495 38.03877482 24.44436864 35.16796875 22.83984375 C34.04664551 22.21456787 32.92532227 21.58929199 31.77001953 20.94506836 C31.1843219 20.61666962 30.59862427 20.28827087 29.99517822 19.94992065 C28.17481712 18.93039674 26.35124635 17.91683363 24.52685547 16.90454102 C19.26047696 13.9773549 14.00974099 11.03337211 8.83984375 7.9375 C8.11192627 7.50703369 7.38400879 7.07656738 6.6340332 6.63305664 C5.33282848 5.85872202 4.04023151 5.06965806 2.75854492 4.26342773 C0.87600474 3.09366338 0.87600474 3.09366338 -2 2 C-5.79239797 3.17971667 -9.11461321 5.10935908 -12.54296875 7.08984375 C-13.609104 7.7039209 -14.67523926 8.31799805 -15.77368164 8.95068359 C-19.83658359 11.31526173 -23.89616226 13.68547379 -27.95014954 16.06530762 C-31.49667011 18.14197865 -35.07263838 20.1517874 -38.6796875 22.12109375 C-40.30754979 23.03860469 -41.93517267 23.95654057 -43.5625 24.875 C-44.31104248 25.26550537 -45.05958496 25.65601074 -45.83081055 26.05834961 C-49.77069841 28.33341205 -49.77069841 28.33341205 -51.67529297 32.32128906 C-51.93641488 34.57495169 -52.05413947 36.73356704 -52 39 C-52.33 39 -52.66 39 -53 39 C-53.33 35.37 -53.66 31.74 -54 28 C-53.10023437 27.50113281 -52.20046875 27.00226562 -51.2734375 26.48828125 C-43.03129907 21.89598337 -34.86830157 17.18294635 -26.75 12.375 C-25.80833984 11.81901123 -24.86667969 11.26302246 -23.89648438 10.69018555 C-19.9359306 8.34843507 -15.98193527 6.00088765 -12.0703125 3.578125 C-11.01585937 2.93359375 -9.96140625 2.2890625 -8.875 1.625 C-8.00617188 1.08101562 -7.13734375 0.53703125 -6.2421875 -0.0234375 C-3.5228336 -1.20782508 -2.76216927 -0.9031215 0 0 Z " fill="#E9E9EA" transform="translate(89,36)"/>
<path d="M0 0 C5.94 0 11.88 0 18 0 C18 1.32 18 2.64 18 4 C17 5 17 5 14.27734375 5.09765625 C12.62412109 5.08025391 12.62412109 5.08025391 10.9375 5.0625 C9.28041016 5.04896484 9.28041016 5.04896484 7.58984375 5.03515625 C6.73519531 5.02355469 5.88054687 5.01195313 5 5 C5 7.64 5 10.28 5 13 C3.35 13.66 1.7 14.32 0 15 C0 10.05 0 5.1 0 0 Z " fill="#25232B" transform="translate(252,80)"/>
<path d="M0 0 C4.95 0 9.9 0 15 0 C15 2.97 15 5.94 15 9 C10.05 9 5.1 9 0 9 C0 6.03 0 3.06 0 0 Z " fill="#E9E9E9" transform="translate(257,85)"/>
<path d="M0 0 C4.62 0 9.24 0 14 0 C14 2.97 14 5.94 14 9 C9.38 9 4.76 9 0 9 C0 6.03 0 3.06 0 0 Z " fill="#F2F1F2" transform="translate(168,85)"/>
<path d="M0 0 C0.66 0.66 1.32 1.32 2 2 C1.32759277 2.38631592 0.65518555 2.77263184 -0.03759766 3.1706543 C-2.64475701 4.66940581 -5.25103571 6.16967861 -7.85705566 7.67041016 C-9.62611153 8.68813946 -11.39651048 9.70350364 -13.16699219 10.71875 C-18.96283288 14.04893558 -24.72314783 17.41771976 -30.4140625 20.92578125 C-31.40067871 21.5288208 -32.38729492 22.13186035 -33.40380859 22.75317383 C-35.26691722 23.89664117 -37.12184255 25.05357693 -38.96728516 26.2253418 C-45.1619093 30.00751651 -45.1619093 30.00751651 -49.484375 29.96875 C-52 29 -52 29 -54 27 C-52.68 27 -51.36 27 -50 27 C-45.48836646 26.51530091 -42.46343977 25.38743158 -38.61328125 23.0078125 C-37.60064209 22.3897876 -36.58800293 21.7717627 -35.54467773 21.13500977 C-34.47805908 20.47170654 -33.41144043 19.80840332 -32.3125 19.125 C-30.0814925 17.76046992 -27.84971252 16.39720208 -25.6171875 15.03515625 C-24.50827148 14.35598145 -23.39935547 13.67680664 -22.25683594 12.97705078 C-17.52304878 10.10342197 -12.73767839 7.32338084 -7.9375 4.5625 C-7.12901611 4.09666504 -6.32053223 3.63083008 -5.48754883 3.15087891 C-3.65940321 2.09878141 -1.82988216 1.04907428 0 0 Z " fill="#EAEAEA" transform="translate(135,123)"/>
<path d="M0 0 C0 2.97 0 5.94 0 9 C-4.95 9 -9.9 9 -15 9 C-12.79744118 0.18976472 -8.12379823 -0.6062536 0 0 Z " fill="#EBEBEC" transform="translate(212,85)"/>
<path d="M0 0 C0.33 0 0.66 0 1 0 C1 9.24 1 18.48 1 28 C-0.98 28.99 -0.98 28.99 -3 30 C-3.08708752 25.7501291 -3.14042181 21.50048761 -3.1875 17.25 C-3.21263672 16.0434375 -3.23777344 14.836875 -3.26367188 13.59375 C-3.27333984 12.43359375 -3.28300781 11.2734375 -3.29296875 10.078125 C-3.3086792 9.00981445 -3.32438965 7.94150391 -3.34057617 6.84082031 C-2.95924191 3.6600279 -2.18877804 2.29640017 0 0 Z " fill="#222028" transform="translate(34,77)"/>
<path d="M0 0 C3.27066566 -0.08706892 6.54103365 -0.14041241 9.8125 -0.1875 C10.74126953 -0.21263672 11.67003906 -0.23777344 12.62695312 -0.26367188 C13.9659668 -0.27817383 13.9659668 -0.27817383 15.33203125 -0.29296875 C16.56530151 -0.31653442 16.56530151 -0.31653442 17.82348633 -0.34057617 C20 0 20 0 21.7800293 1.3190918 C23.59594879 3.82111415 23.19989286 6.0016071 23 9 C21.02 9 19.04 9 17 9 C17 8.01 17 7.02 17 6 C14.36 6 11.72 6 9 6 C9.33 4.35 9.66 2.7 10 1 C6.7 1 3.4 1 0 1 C0 0.67 0 0.34 0 0 Z " fill="#4C4B51" transform="translate(135,79)"/>
<path d="M0 0 C5.61 1.98 11.22 3.96 17 6 C17 6.99 17 7.98 17 9 C11.06 8.67 5.12 8.34 -1 8 C-1 4 -1 4 0 0 Z " fill="#333139" transform="translate(95,68)"/>
<path d="M0 0 C0.33 0 0.66 0 1 0 C1 1.98 1 3.96 1 6 C-2.3 6.33 -5.6 6.66 -9 7 C-9 8.32 -9 9.64 -9 11 C-15.0546875 11.1953125 -15.0546875 11.1953125 -17 11 C-19 9 -19 9 -19.125 5.875 C-19.08375 4.92625 -19.0425 3.9775 -19 3 C-17.35 3 -15.7 3 -14 3 C-14 3.66 -14 4.32 -14 5 C-9.38 5 -4.76 5 0 5 C0 3.35 0 1.7 0 0 Z " fill="#4F4D54" transform="translate(241,97)"/>
<path d="M0 0 C1.010625 0.144375 2.02125 0.28875 3.0625 0.4375 C2.60875 0.829375 2.155 1.22125 1.6875 1.625 C-0.08639105 3.39493841 -0.08639105 3.39493841 -0.9375 5.9375 C-1.97156038 8.52265096 -2.74831732 9.75351333 -4.9375 11.4375 C-7.125 12.125 -7.125 12.125 -8.9375 12.4375 C-8.9375 11.1175 -8.9375 9.7975 -8.9375 8.4375 C-9.5975 8.1075 -10.2575 7.7775 -10.9375 7.4375 C-5.17820022 0.57535558 -5.17820022 0.57535558 0 0 Z " fill="#2C2A32" transform="translate(202.9375,79.5625)"/>
<path d="M0 0 C0.33 0 0.66 0 1 0 C1 4.95 1 9.9 1 15 C-0.65 14.01 -2.3 13.02 -4 12 C-4.33 12 -4.66 12 -5 12 C-5 9.03 -5 6.06 -5 3 C-4.01 4.485 -4.01 4.485 -3 6 C-2.01 6 -1.02 6 0 6 C0 4.02 0 2.04 0 0 Z " fill="#2E2C33" transform="translate(187,82)"/>
<path d="M0 0 C0.66 0 1.32 0 2 0 C2.33 5.61 2.66 11.22 3 17 C1.68 17 0.36 17 -1 17 C-0.67 11.39 -0.34 5.78 0 0 Z " fill="#333239" transform="translate(111,79)"/>
<path d="M0 0 C0.9075 0.226875 1.815 0.45375 2.75 0.6875 C2.75 2.6675 2.75 4.6475 2.75 6.6875 C0.77 6.6875 -1.21 6.6875 -3.25 6.6875 C-3.25 5.6975 -3.25 4.7075 -3.25 3.6875 C-4.57 3.3575 -5.89 3.0275 -7.25 2.6875 C-4.61280971 0.1517401 -3.74095095 -0.35970682 0 0 Z " fill="#24222A" transform="translate(155.25,81.3125)"/>
<path d="M0 0 C3.3 1.65 6.6 3.3 10 5 C8.68 6.32 7.36 7.64 6 9 C4.66144944 8.21718695 3.32926356 7.42348123 2 6.625 C1.2575 6.18414062 0.515 5.74328125 -0.25 5.2890625 C-1.11625 4.65097656 -1.11625 4.65097656 -2 4 C-2 3.34 -2 2.68 -2 2 C-1.34 2 -0.68 2 0 2 C0 1.34 0 0.68 0 0 Z " fill="#323037" transform="translate(90,32)"/>
<path d="M0 0 C14.78132118 7.29840547 14.78132118 7.29840547 21 11 C21 11.66 21 12.32 21 13 C15.86541905 11.52840671 11.65314066 9.24672098 7.125 6.5 C6.43664062 6.09652344 5.74828125 5.69304687 5.0390625 5.27734375 C3.32181102 4.24494852 1.65541825 3.12888572 0 2 C0 1.34 0 0.68 0 0 Z " fill="#F2F2F3" transform="translate(61,137)"/>
<path d="M0 0 C0 0.99 0 1.98 0 3 C-1.71484375 4.0703125 -1.71484375 4.0703125 -3.9375 5.125 C-6.63088608 6.668828 -7.78330293 7.33194427 -8.75390625 10.32421875 C-8.97648088 12.57469553 -9.07874709 14.74094292 -9 17 C-9.33 17 -9.66 17 -10 17 C-10.33 13.37 -10.66 9.74 -11 6 C-7.37 4.02 -3.74 2.04 0 0 Z " fill="#EAEAEA" transform="translate(46,58)"/>
<path d="M0 0 C3.34373475 0.55728913 6.03312999 1.35173889 9 3 C8.67 3.66 8.34 4.32 8 5 C4.7 4.67 1.4 4.34 -2 4 C-1.34 2.68 -0.68 1.36 0 0 Z " fill="#26242C" transform="translate(104,72)"/>
<path d="M0 0 C0.66 0.66 1.32 1.32 2 2 C0.04480616 3.17192047 -1.9142539 4.3373929 -3.875 5.5 C-4.96554688 6.1496875 -6.05609375 6.799375 -7.1796875 7.46875 C-10 9 -10 9 -12 9 C-12 8.34 -12 7.68 -12 7 C-10.04775792 5.71593601 -8.03659238 4.52058322 -6 3.375 C-4.88625 2.74335937 -3.7725 2.11171875 -2.625 1.4609375 C-1.75875 0.97882813 -0.8925 0.49671875 0 0 Z " fill="#E8E8E8" transform="translate(135,123)"/>
<path d="M0 0 C3.96 1.98 7.92 3.96 12 6 C11.01 7.485 11.01 7.485 10 9 C10 8.34 10 7.68 10 7 C9.278125 6.731875 8.55625 6.46375 7.8125 6.1875 C5.00233617 5.00098638 2.51583443 3.72514361 0 2 C0 1.34 0 0.68 0 0 Z " fill="#E6E6E7" transform="translate(125,57)"/>
<path d="M0 0 C1.65 0 3.3 0 5 0 C4.75 1.875 4.75 1.875 4 4 C1.9375 5.25 1.9375 5.25 0 6 C0 4.02 0 2.04 0 0 Z " fill="#222028" transform="translate(222,100)"/>
<path d="M0 0 C0.33 0.99 0.66 1.98 1 3 C-2.96 4.98 -2.96 4.98 -7 7 C-7 6.01 -7 5.02 -7 4 C-4.69 2.68 -2.38 1.36 0 0 Z " fill="#DEDEDF" transform="translate(71,43)"/>
</svg>
